<?xml version="1.0" encoding="UTF-8" standalone="no"?>
<!-- Created with Inkscape (http://www.inkscape.org/) -->

<svg
   xmlns:dc="http://purl.org/dc/elements/1.1/"
   xmlns:cc="http://creativecommons.org/ns#"
   xmlns:rdf="http://www.w3.org/1999/02/22-rdf-syntax-ns#"
   xmlns:svg="http://www.w3.org/2000/svg"
   xmlns="http://www.w3.org/2000/svg"
   xmlns:sodipodi="http://sodipodi.sourceforge.net/DTD/sodipodi-0.dtd"
   xmlns:inkscape="http://www.inkscape.org/namespaces/inkscape"
   id="svg2"
   version="1.1"
   inkscape:version="0.91 r13725"
   xml:space="preserve"
   width="250.35126"
   height="167.1375"
   viewBox="0 0 250.35126 167.1375"
   sodipodi:docname="additive.svg"><metadata
     id="metadata8"><rdf:RDF><cc:Work
         rdf:about=""><dc:format>image/svg+xml</dc:format><dc:type
           rdf:resource="http://purl.org/dc/dcmitype/StillImage" /><dc:title></dc:title></cc:Work></rdf:RDF></metadata><defs
     id="defs6" /><sodipodi:namedview
     pagecolor="#ffffff"
     bordercolor="#666666"
     borderopacity="1"
     objecttolerance="10"
     gridtolerance="10"
     guidetolerance="10"
     inkscape:pageopacity="0"
     inkscape:pageshadow="2"
     inkscape:window-width="640"
     inkscape:window-height="480"
     id="namedview4"
     showgrid="false"
     inkscape:zoom="1.2821985"
     inkscape:cx="125.17563"
     inkscape:cy="83.568748"
     inkscape:window-x="0"
     inkscape:window-y="0"
     inkscape:window-maximized="0"
     inkscape:current-layer="g10" /><g
     id="g10"
     inkscape:groupmode="layer"
     inkscape:label="additive"
     transform="matrix(1.25,0,0,-1.25,-55.04125,83.56875)"><g
       id="g12"><g
         id="g14"><g
           id="g16"><path
             d="m 44.23299,46.73083 24.92123,0 0,19.92555 -24.92123,0 0,-19.92555 z"
             style="fill:none;stroke:#000000;stroke-width:0.3985;stroke-linecap:butt;stroke-linejoin:miter;stroke-miterlimit:10;stroke-dasharray:none;stroke-opacity:1"
             id="path18"
             inkscape:connector-curvature="0" /><g
             id="g20"
             transform="translate(47.553,55.295)"><g
               id="g22"><g
                 id="g24"
                 transform="translate(-3.52,-122.15)"><text
                   transform="matrix(1,0,0,-1,3.52,122.15)"
                   style="font-variant:normal;font-weight:normal;font-size:9.96259975px;font-family:CMMI10;-inkscape-font-specification:CMMI10;writing-mode:lr-tb;fill:#000000;fill-opacity:1;fill-rule:nonzero;stroke:none"
                   id="text26"><tspan
                     x="0 4.8288722 9.4993391"
                     y="0"
                     sodipodi:role="line"
                     id="tspan28">osc</tspan></text>
<text
                   transform="matrix(1,0,0,-1,17.33,120.656)"
                   style="font-variant:normal;font-weight:normal;font-size:6.97380018px;font-family:CMR7;-inkscape-font-specification:CMR7;writing-mode:lr-tb;fill:#000000;fill-opacity:1;fill-rule:nonzero;stroke:none"
                   id="text30"><tspan
                     x="0"
                     y="0"
                     id="tspan32">0</tspan></text>
<g
                   id="g34"
                   transform="translate(3.52,122.15)" /></g></g><g
               id="g36"
               transform="translate(-47.553,-55.295)" /></g></g><g
           id="g38"><path
             d="m 44.23299,18.38402 24.92123,0 0,19.92555 -24.92123,0 0,-19.92555 z"
             style="fill:none;stroke:#000000;stroke-width:0.3985;stroke-linecap:butt;stroke-linejoin:miter;stroke-miterlimit:10;stroke-dasharray:none;stroke-opacity:1"
             id="path40"
             inkscape:connector-curvature="0" /><g
             id="g42"
             transform="translate(47.553,26.949)"><g
               id="g44"><g
                 id="g46"
                 transform="translate(-3.52,-93.804)"><text
                   transform="matrix(1,0,0,-1,3.52,93.804)"
                   style="font-variant:normal;font-weight:normal;font-size:9.96259975px;font-family:CMMI10;-inkscape-font-specification:CMMI10;writing-mode:lr-tb;fill:#000000;fill-opacity:1;fill-rule:nonzero;stroke:none"
                   id="text48"><tspan
                     x="0 4.8288722 9.4993391"
                     y="0"
                     sodipodi:role="line"
                     id="tspan50">osc</tspan></text>
<text
                   transform="matrix(1,0,0,-1,17.33,92.309)"
                   style="font-variant:normal;font-weight:normal;font-size:6.97380018px;font-family:CMR7;-inkscape-font-specification:CMR7;writing-mode:lr-tb;fill:#000000;fill-opacity:1;fill-rule:nonzero;stroke:none"
                   id="text52"><tspan
                     x="0"
                     y="0"
                     id="tspan54">1</tspan></text>
<g
                   id="g56"
                   transform="translate(3.52,93.804)" /></g></g><g
               id="g58"
               transform="translate(-47.553,-26.949)" /></g></g><g
           id="g60"><path
             d="m 44.23299,-9.96277 24.92123,0 0,19.92555 -24.92123,0 0,-19.92555 z"
             style="fill:none;stroke:#000000;stroke-width:0.3985;stroke-linecap:butt;stroke-linejoin:miter;stroke-miterlimit:10;stroke-dasharray:none;stroke-opacity:1"
             id="path62"
             inkscape:connector-curvature="0" /><g
             id="g64"
             transform="translate(47.553,-1.398)"><g
               id="g66"><g
                 id="g68"
                 transform="translate(-3.52,-65.457)"><text
                   transform="matrix(1,0,0,-1,3.52,65.457)"
                   style="font-variant:normal;font-weight:normal;font-size:9.96259975px;font-family:CMMI10;-inkscape-font-specification:CMMI10;writing-mode:lr-tb;fill:#000000;fill-opacity:1;fill-rule:nonzero;stroke:none"
                   id="text70"><tspan
                     x="0 4.8288722 9.4993391"
                     y="0"
                     sodipodi:role="line"
                     id="tspan72">osc</tspan></text>
<text
                   transform="matrix(1,0,0,-1,17.33,63.963)"
                   style="font-variant:normal;font-weight:normal;font-size:6.97380018px;font-family:CMR7;-inkscape-font-specification:CMR7;writing-mode:lr-tb;fill:#000000;fill-opacity:1;fill-rule:nonzero;stroke:none"
                   id="text74"><tspan
                     x="0"
                     y="0"
                     id="tspan76">2</tspan></text>
<g
                   id="g78"
                   transform="translate(3.52,65.457)" /></g></g><g
               id="g80"
               transform="translate(-47.553,1.398)" /></g></g><g
           id="g82"><path
             d="m 44.23299,-38.30959 24.92123,0 0,19.92555 -24.92123,0 0,-19.92555 z"
             style="fill:none;stroke:#000000;stroke-width:0.3985;stroke-linecap:butt;stroke-linejoin:miter;stroke-miterlimit:10;stroke-dasharray:none;stroke-opacity:1"
             id="path84"
             inkscape:connector-curvature="0" /><g
             id="g86"
             transform="translate(47.553,-29.744)"><g
               id="g88"><g
                 id="g90"
                 transform="translate(-3.52,-37.111)"><text
                   transform="matrix(1,0,0,-1,3.52,37.111)"
                   style="font-variant:normal;font-weight:normal;font-size:9.96259975px;font-family:CMMI10;-inkscape-font-specification:CMMI10;writing-mode:lr-tb;fill:#000000;fill-opacity:1;fill-rule:nonzero;stroke:none"
                   id="text92"><tspan
                     x="0 4.8288722 9.4993391"
                     y="0"
                     sodipodi:role="line"
                     id="tspan94">osc</tspan></text>
<text
                   transform="matrix(1,0,0,-1,17.33,35.616)"
                   style="font-variant:normal;font-weight:normal;font-size:6.97380018px;font-family:CMR7;-inkscape-font-specification:CMR7;writing-mode:lr-tb;fill:#000000;fill-opacity:1;fill-rule:nonzero;stroke:none"
                   id="text96"><tspan
                     x="0"
                     y="0"
                     id="tspan98">3</tspan></text>
<g
                   id="g100"
                   transform="translate(3.52,37.111)" /></g></g><g
               id="g102"
               transform="translate(-47.553,29.744)" /></g></g><g
           id="g104"><path
             d="m 44.23299,-66.6564 24.92123,0 0,19.92555 -24.92123,0 0,-19.92555 z"
             style="fill:none;stroke:#000000;stroke-width:0.3985;stroke-linecap:butt;stroke-linejoin:miter;stroke-miterlimit:10;stroke-dasharray:none;stroke-opacity:1"
             id="path106"
             inkscape:connector-curvature="0" /><g
             id="g108"
             transform="translate(47.553,-58.091)"><g
               id="g110"><g
                 id="g112"
                 transform="translate(-3.52,-8.764)"><text
                   transform="matrix(1,0,0,-1,3.52,8.764)"
                   style="font-variant:normal;font-weight:normal;font-size:9.96259975px;font-family:CMMI10;-inkscape-font-specification:CMMI10;writing-mode:lr-tb;fill:#000000;fill-opacity:1;fill-rule:nonzero;stroke:none"
                   id="text114"><tspan
                     x="0 4.8288722 9.4993391"
                     y="0"
                     sodipodi:role="line"
                     id="tspan116">osc</tspan></text>
<text
                   transform="matrix(1,0,0,-1,17.33,7.27)"
                   style="font-variant:normal;font-weight:normal;font-size:6.97380018px;font-family:CMR7;-inkscape-font-specification:CMR7;writing-mode:lr-tb;fill:#000000;fill-opacity:1;fill-rule:nonzero;stroke:none"
                   id="text118"><tspan
                     x="0"
                     y="0"
                     id="tspan120">4</tspan></text>
<g
                   id="g122"
                   transform="translate(3.52,8.764)" /></g></g><g
               id="g124"
               transform="translate(-47.553,58.091)" /></g></g><g
           id="g126"><path
             d="m 131.77126,-9.96277 19.92555,0 0,19.92555 -19.92555,0 0,-19.92555 z"
             style="fill:none;stroke:#000000;stroke-width:0.3985;stroke-linecap:butt;stroke-linejoin:miter;stroke-miterlimit:10;stroke-dasharray:none;stroke-opacity:1"
             id="path128"
             inkscape:connector-curvature="0" /><g
             id="g130"
             transform="translate(137.858,-2.491)"><g
               id="g132"><g
                 id="g134"
                 transform="translate(-93.825,-64.364)"><text
                   transform="matrix(1,0,0,-1,93.825,64.364)"
                   style="font-variant:normal;font-weight:normal;font-size:9.96259975px;font-family:CMR10;-inkscape-font-specification:CMR10;writing-mode:lr-tb;fill:#000000;fill-opacity:1;fill-rule:nonzero;stroke:none"
                   id="text136"><tspan
                     x="0"
                     y="0"
                     id="tspan138">+</tspan></text>
<g
                   id="g140"
                   transform="translate(93.825,64.364)" /></g></g><g
               id="g142"
               transform="translate(-137.858,2.491)" /></g></g><g
           id="g144"><g
             id="g146"
             transform="translate(212.55,-2.096)"><g
               id="g148"><g
                 id="g150"
                 transform="translate(-168.517,-64.759)"><text
                   transform="matrix(1,0,0,-1,168.517,64.759)"
                   style="font-variant:normal;font-weight:normal;font-size:9.96259975px;font-family:CMMI10;-inkscape-font-specification:CMMI10;writing-mode:lr-tb;fill:#000000;fill-opacity:1;fill-rule:nonzero;stroke:none"
                   id="text152"><tspan
                     x="0 4.8288722 10.532461 14.129955 19.142139 24.845728"
                     y="0"
                     sodipodi:role="line"
                     id="tspan154">output</tspan></text>
<g
                   id="g156"
                   transform="translate(168.517,64.759)" /></g></g><g
               id="g158"
               transform="translate(-212.55,2.096)" /></g></g><path
           d="m 69.35349,56.69362 72.38055,0 0,-44.14057"
           style="fill:none;stroke:#000000;stroke-width:0.3985;stroke-linecap:butt;stroke-linejoin:miter;stroke-miterlimit:10;stroke-dasharray:none;stroke-opacity:1"
           id="path160"
           inkscape:connector-curvature="0" /><g
           id="g162"
           transform="matrix(0,-1,1,0,141.73404,12.55305)"><g
             id="g164"><path
               d="m 2.39102,0 c -0.99626,0.19925 -2.78952,0.59775 -3.98503,1.49438 0.99626,-1.09588 0.99626,-1.89288 0,-2.98876 C -0.3985,-0.59775 1.39476,-0.19925 2.39102,0 Z"
               style="fill:#000000;fill-opacity:1;fill-rule:nonzero;stroke:none"
               id="path166"
               inkscape:connector-curvature="0" /></g></g><path
           d="m 69.35349,28.3468 72.38055,0 0,-15.79375"
           style="fill:none;stroke:#000000;stroke-width:0.3985;stroke-linecap:butt;stroke-linejoin:miter;stroke-miterlimit:10;stroke-dasharray:none;stroke-opacity:1"
           id="path168"
           inkscape:connector-curvature="0" /><g
           id="g170"
           transform="matrix(0,-1,1,0,141.73404,12.55305)"><g
             id="g172"><path
               d="m 2.39102,0 c -0.99626,0.19925 -2.78952,0.59775 -3.98503,1.49438 0.99626,-1.09588 0.99626,-1.89288 0,-2.98876 C -0.3985,-0.59775 1.39476,-0.19925 2.39102,0 Z"
               style="fill:#000000;fill-opacity:1;fill-rule:nonzero;stroke:none"
               id="path174"
               inkscape:connector-curvature="0" /></g></g><path
           d="m 69.35349,0 59.82749,0"
           style="fill:none;stroke:#000000;stroke-width:0.3985;stroke-linecap:butt;stroke-linejoin:miter;stroke-miterlimit:10;stroke-dasharray:none;stroke-opacity:1"
           id="path176"
           inkscape:connector-curvature="0" /><g
           id="g178"
           transform="translate(129.18098,0)"><g
             id="g180"><path
               d="m 2.39102,0 c -0.99626,0.19925 -2.78952,0.59775 -3.98503,1.49438 0.99626,-1.09588 0.99626,-1.89288 0,-2.98876 C -0.3985,-0.59775 1.39476,-0.19925 2.39102,0 Z"
               style="fill:#000000;fill-opacity:1;fill-rule:nonzero;stroke:none"
               id="path182"
               inkscape:connector-curvature="0" /></g></g><path
           d="m 69.35349,-28.3468 72.38055,0 0,15.79375"
           style="fill:none;stroke:#000000;stroke-width:0.3985;stroke-linecap:butt;stroke-linejoin:miter;stroke-miterlimit:10;stroke-dasharray:none;stroke-opacity:1"
           id="path184"
           inkscape:connector-curvature="0" /><g
           id="g186"
           transform="matrix(0,1,-1,0,141.73404,-12.55305)"><g
             id="g188"><path
               d="m 2.39102,0 c -0.99626,0.19925 -2.78952,0.59775 -3.98503,1.49438 0.99626,-1.09588 0.99626,-1.89288 0,-2.98876 C -0.3985,-0.59775 1.39476,-0.19925 2.39102,0 Z"
               style="fill:#000000;fill-opacity:1;fill-rule:nonzero;stroke:none"
               id="path190"
               inkscape:connector-curvature="0" /></g></g><path
           d="m 69.35349,-56.69362 72.38055,0 0,44.14057"
           style="fill:none;stroke:#000000;stroke-width:0.3985;stroke-linecap:butt;stroke-linejoin:miter;stroke-miterlimit:10;stroke-dasharray:none;stroke-opacity:1"
           id="path192"
           inkscape:connector-curvature="0" /><g
           id="g194"
           transform="matrix(0,1,-1,0,141.73404,-12.55305)"><g
             id="g196"><path
               d="m 2.39102,0 c -0.99626,0.19925 -2.78952,0.59775 -3.98503,1.49438 0.99626,-1.09588 0.99626,-1.89288 0,-2.98876 C -0.3985,-0.59775 1.39476,-0.19925 2.39102,0 Z"
               style="fill:#000000;fill-opacity:1;fill-rule:nonzero;stroke:none"
               id="path198"
               inkscape:connector-curvature="0" /></g></g><path
           d="m 151.89607,0 54.74576,0"
           style="fill:none;stroke:#000000;stroke-width:0.3985;stroke-linecap:butt;stroke-linejoin:miter;stroke-miterlimit:10;stroke-dasharray:none;stroke-opacity:1"
           id="path200"
           inkscape:connector-curvature="0" /><g
           id="g202"
           transform="translate(206.64183,0)"><g
             id="g204"><path
               d="m 2.39102,0 c -0.99626,0.19925 -2.78952,0.59775 -3.98503,1.49438 0.99626,-1.09588 0.99626,-1.89288 0,-2.98876 C -0.3985,-0.59775 1.39476,-0.19925 2.39102,0 Z"
               style="fill:#000000;fill-opacity:1;fill-rule:nonzero;stroke:none"
               id="path206"
               inkscape:connector-curvature="0" /></g></g></g></g></g></svg>